# xmcd
#
# Track frame offsets:
#	150
#	32795
#	51166
#	90978
#	122456
#	181170
#
# Disc length: 3106 seconds
#
# Revision: 0
# Processed by: cddbd v1.5.2PL0 Copyright (c) Steve Scherf et al.
# Submitted via: dBpowerAMP V4.0
#
DISCID=3f0c2006
DTITLE=Derek Trucks Band - Live At Sioux Falls Jazz And Blues Festival, 2007, Cd 1
DYEAR=1900
DGENRE=Blues
TTITLE0=I Wish I Know
TTITLE1=Sugar
TTITLE2=Do Yourself A Favor
TTITLE3=Standback
TTITLE4=Joyful Noise
TTITLE5=Anyday
EXTD=
EXTT0=
EXTT1=
EXTT2=
EXTT3=
EXTT4=
EXTT5=
PLAYORDER=
